<?xml version="1.0" encoding="UTF-8" standalone="no"?>
<svg
   viewBox="0 0 512 512"
   version="1.1"
   id="svg7"
   sodipodi:docname="hisc-apps-scholia.svg"
   inkscape:version="1.4.2 (f4327f4, 2025-05-13)"
   xmlns:inkscape="http://www.inkscape.org/namespaces/inkscape"
   xmlns:sodipodi="http://sodipodi.sourceforge.net/DTD/sodipodi-0.dtd"
   xmlns:xlink="http://www.w3.org/1999/xlink"
   xmlns="http://www.w3.org/2000/svg"
   xmlns:svg="http://www.w3.org/2000/svg"
   xmlns:ns2="http://www.iki.fi/pav/software/textext/">
  <sodipodi:namedview
     id="namedview7"
     pagecolor="#ffffff"
     bordercolor="#000000"
     borderopacity="0.25"
     inkscape:showpageshadow="2"
     inkscape:pageopacity="0.0"
     inkscape:pagecheckerboard="0"
     inkscape:deskcolor="#d1d1d1"
     inkscape:zoom="1.6117063"
     inkscape:cx="208.16448"
     inkscape:cy="355.83407"
     inkscape:window-width="2560"
     inkscape:window-height="1369"
     inkscape:window-x="-8"
     inkscape:window-y="-8"
     inkscape:window-maximized="1"
     inkscape:current-layer="svg7" />
  <defs
     id="defs4">
    <linearGradient
       id="linearGradient19"
       inkscape:collect="always">
      <stop
         style="stop-color:#ffff00;stop-opacity:1;"
         offset="0"
         id="stop19" />
      <stop
         style="stop-color:#ffff00;stop-opacity:0;"
         offset="1"
         id="stop20" />
    </linearGradient>
    <linearGradient
       id="paper"
       x1="96"
       y1="44"
       x2="404"
       y2="468"
       gradientUnits="userSpaceOnUse">
      <stop
         offset="0"
         stop-color="#ffffff"
         id="stop1" />
      <stop
         offset="1"
         stop-color="#e8f3ff"
         id="stop2" />
    </linearGradient>
    <linearGradient
       id="mark"
       x1="152"
       y1="132"
       x2="380"
       y2="380"
       gradientUnits="userSpaceOnUse"
       gradientTransform="translate(-47.775454,93.069071)">
      <stop
         offset="0"
         stop-color="#10b981"
         id="stop3" />
      <stop
         offset="1"
         stop-color="#2563eb"
         id="stop4" />
    </linearGradient>
    <linearGradient
       inkscape:collect="always"
       xlink:href="#linearGradient19"
       id="linearGradient20"
       x1="145.65894"
       y1="188.87406"
       x2="272.45245"
       y2="188.87406"
       gradientUnits="userSpaceOnUse" />
  </defs>
  <g
     id="g7"
     transform="matrix(3.4867343,0,0,3.4867343,-471.20563,-334.18731)">
    <rect
       style="fill:url(#linearGradient20);stroke:none;stroke-width:1.74338;paint-order:markers stroke fill"
       id="rect7"
       width="126.79351"
       height="44.311924"
       x="145.65894"
       y="166.71809"
       ry="13.600685" />
    <g
       id="g4721"
       transform="matrix(10.585,0,0,10.585,157.64876,123.50239)"
       ns2:version="1.13.0"
       ns2:texconverter="xelatex"
       ns2:pdfconverter="inkscape"
       ns2:text="$\\hat{\\symbfit{\\sigma}}$"
       ns2:preamble="C:\Users\jairy\AppData\Roaming\inkscape\extensions\textext\default_packages.tex"
       ns2:scale="17.113719885337527"
       ns2:alignment="middle center"
       ns2:jacobian_sqrt="10.585"
       style="fill:#4d4d4d;fill-opacity:1">
      <defs
         id="defs8737">
        <g
           id="g6083">
          <g
             id="g9708">
            <path
               d="m -0.8125,-6.046875 c -0.5625,-0.5 -1.171875,-0.90625 -1.8125,-1.265625 -0.65625,0.359375 -1.265625,0.765625 -1.828125,1.265625 l 0.125,0.1875 C -3.75,-6.09375 -3.1875,-6.390625 -2.625,-6.703125 c 0.546875,0.3125 1.109375,0.609375 1.6875,0.84375 z m 0,0"
               id="path4582" />
          </g>
          <g
             id="g7620">
            <path
               d="m 6.6875,-4.03125 c 0,-0.390625 -0.34375,-0.390625 -0.53125,-0.390625 H 3.375 c -2.046875,0 -2.953125,1.875 -2.953125,2.921875 0,1.078125 0.796875,1.578125 1.875,1.578125 1.8125,0 2.875,-1.375 2.875,-2.796875 0,-0.234375 -0.03125,-0.515625 -0.140625,-0.75 h 0.953125 c 0.203125,0 0.359375,0 0.5,-0.15625 C 6.5625,-3.6875 6.6875,-3.8125 6.6875,-4.03125 Z m -2.59375,1.265625 c 0,0.296875 -0.203125,1.296875 -0.515625,1.78125 C 3.171875,-0.375 2.59375,-0.28125 2.3125,-0.28125 c -0.859375,0 -0.859375,-0.703125 -0.859375,-0.859375 0,-0.375 0.21875,-1.328125 0.4375,-1.6875 0.203125,-0.34375 0.53125,-0.640625 1.296875,-0.640625 0.8125,0 0.90625,0.34375 0.90625,0.703125 z m 0,0"
               id="path4818" />
          </g>
        </g>
      </defs>
      <g
         fill="#000000"
         fill-opacity="1"
         id="g5707"
         transform="translate(-149.135,-127.453)"
         style="fill:#4d4d4d;fill-opacity:1">
        <g
           transform="translate(154.76,134.765)"
           id="g683"
           style="fill:#4d4d4d;fill-opacity:1">
          <path
             d="m -0.8125,-6.046875 c -0.5625,-0.5 -1.171875,-0.90625 -1.8125,-1.265625 -0.65625,0.359375 -1.265625,0.765625 -1.828125,1.265625 l 0.125,0.1875 C -3.75,-6.09375 -3.1875,-6.390625 -2.625,-6.703125 c 0.546875,0.3125 1.109375,0.609375 1.6875,0.84375 z m 0,0"
             id="path501"
             style="fill:#4d4d4d;fill-opacity:1" />
        </g>
      </g>
      <g
         fill="#000000"
         fill-opacity="1"
         id="g1270"
         transform="translate(-149.135,-127.453)"
         style="fill:#4d4d4d;fill-opacity:1">
        <g
           transform="translate(148.713,134.765)"
           id="g2470"
           style="fill:#4d4d4d;fill-opacity:1">
          <path
             d="m 6.6875,-4.03125 c 0,-0.390625 -0.34375,-0.390625 -0.53125,-0.390625 H 3.375 c -2.046875,0 -2.953125,1.875 -2.953125,2.921875 0,1.078125 0.796875,1.578125 1.875,1.578125 1.8125,0 2.875,-1.375 2.875,-2.796875 0,-0.234375 -0.03125,-0.515625 -0.140625,-0.75 h 0.953125 c 0.203125,0 0.359375,0 0.5,-0.15625 C 6.5625,-3.6875 6.6875,-3.8125 6.6875,-4.03125 Z m -2.59375,1.265625 c 0,0.296875 -0.203125,1.296875 -0.515625,1.78125 C 3.171875,-0.375 2.59375,-0.28125 2.3125,-0.28125 c -0.859375,0 -0.859375,-0.703125 -0.859375,-0.859375 0,-0.375 0.21875,-1.328125 0.4375,-1.6875 0.203125,-0.34375 0.53125,-0.640625 1.296875,-0.640625 0.8125,0 0.90625,0.34375 0.90625,0.703125 z m 0,0"
             id="path1383"
             style="fill:#4d4d4d;fill-opacity:1" />
        </g>
      </g>
    </g>
  </g>
</svg>
